<?xml version="1.0" standalone="no"?>
<!DOCTYPE svg PUBLIC "-//W3C//DTD SVG 1.0//EN" "http://www.w3.org/TR/2001/REC-SVG-20010904/DTD/svg10.dtd">
<svg xmlns="http://www.w3.org/2000/svg" xmlns:xlink="http://www.w3.org/1999/xlink" id="body_1" width="100" height="100">

<g transform="matrix(4.166667 0 0 4.166667 0 0)">
	<g>
        <path d="M22.767 8.392L15.535 1.464C 13.588362 -0.48208714 10.4348955 -0.48879194 8.48 1.449L8.48 1.449L1.233 8.392C 0.44716787 9.1474905 0.0021176338 10.189912 0 11.28L0 11.28L0 24L24 24L24 11.28C 23.99788 10.189912 23.55283 9.1474905 22.767 8.392zM9.879 2.878C 11.070571 1.7346094 12.954054 1.7416868 14.136999 2.894L14.136999 2.894L20.884998 9.358L14.120998 16.122C 12.933534 17.253937 11.0664625 17.253937 9.878998 16.122L9.878998 16.122L3.115 9.358zM22 22L2 22L2 11.28C 2 11.216 2.013 11.153999 2.019 11.09L2.019 11.09L8.465 17.536C 10.4175 19.487907 13.5825 19.487907 15.535 17.536L15.535 17.536L21.980999 11.089999C 21.987 11.153999 21.999998 11.216 21.999998 11.279999z" stroke="none" fill="#FFFFFF" fill-rule="nonzero" />
	</g>
</g>
</svg>