<?xml version="1.0" standalone="no"?>
<!DOCTYPE svg PUBLIC "-//W3C//DTD SVG 1.0//EN" "http://www.w3.org/TR/2001/REC-SVG-20010904/DTD/svg10.dtd">
<svg xmlns="http://www.w3.org/2000/svg" xmlns:xlink="http://www.w3.org/1999/xlink" id="body_1" width="100" height="100">

<g transform="matrix(4.166667 0 0 4.166667 0 0)">
	<g>
		<g>
            <path d="M21 1L3 1C 1.3431456 1 0 2.3431456 0 4L0 4L0 23L24 23L24 4C 24 2.3431456 22.656855 1 21 1zM3 3L21 3C 21.552284 3 22 3.4477153 22 4L22 4L22 4.667L14.122 12.546C 12.948677 13.714623 11.051323 13.714623 9.878 12.546L9.878 12.546L2 4.667L2 4C 2 3.4477153 2.4477153 3 3 3zM2 21L2 7.5L8.464 13.96C 10.418325 15.909384 13.581675 15.909384 15.535999 13.96L15.535999 13.96L22 7.5L22 21z" stroke="none" fill="#FFFFFF" fill-rule="nonzero" />
		</g>
	</g>
</g>
</svg>